<svg width="80" height="80" viewBox="0 0 80 80" fill="none" xmlns="http://www.w3.org/2000/svg">
<g clip-path="url(#clip0_3_310)">
<rect width="80" height="80" rx="40" fill="#F5F5F5"/>
<circle cx="40" cy="40" r="40" fill="#E8E8E8"/>
<path d="M44.9767 34.1239L40.7563 24.974C40.4584 24.3283 39.5407 24.3283 39.2428 24.974L35.0224 34.1239C34.901 34.3871 34.6516 34.5683 34.3638 34.6024L24.3576 35.7888C23.6515 35.8725 23.3679 36.7453 23.89 37.2281L31.2878 44.0695C31.5006 44.2662 31.5958 44.5594 31.5394 44.8437L29.5756 54.7268C29.437 55.4242 30.1795 55.9637 30.8 55.6163L39.5925 50.6947C39.8454 50.5531 40.1537 50.5531 40.4066 50.6947L49.1991 55.6163C49.8196 55.9637 50.5621 55.4242 50.4235 54.7268L48.4598 44.8437C48.4033 44.5594 48.4986 44.2662 48.7113 44.0695L56.1092 37.2281C56.6313 36.7453 56.3477 35.8725 55.6415 35.7888L45.6353 34.6024C45.3475 34.5683 45.0981 34.3871 44.9767 34.1239Z" stroke="#111111" stroke-width="3.33333" stroke-linecap="round" stroke-linejoin="round"/>
</g>
<defs>
<clipPath id="clip0_3_310">
<rect width="80" height="80" rx="40" fill="white"/>
</clipPath>
</defs>
</svg>
